<svg width="137" height="83" viewBox="0 0 137 83" fill="none" xmlns="http://www.w3.org/2000/svg">
<path d="M22.9851 41.1258L41.3689 46.8294L45.6213 65.602L31.4899 78.671L13.1061 72.9674L8.85374 54.1948L22.9851 41.1258Z" fill="#C4C4C4" fill-opacity="0.5"/>
<path d="M33.3489 7.55426L51.49 13.3129L55.7424 32.0855L41.8537 45.0995L23.7126 39.3409L19.4602 20.5683L33.3489 7.55426Z" fill="#C4C4C4" fill-opacity="0.5"/>
<path d="M57.1682 33.3827L75.552 39.0863L79.8044 57.8589L65.673 70.9279L47.2892 65.2243L43.0368 46.4517L57.1682 33.3827Z" fill="#C4C4C4" fill-opacity="0.5"/>
<path d="M20.202 69.6367H15.8372V73.5944H20.8558V74.2873H15.0488V64.5864H20.8237V65.286H15.8372V68.9438H20.202V69.6367Z" fill="black"/>
<path d="M22.4261 74.2873V67.0782H24.9707C25.8509 67.0782 26.526 67.2426 26.996 67.5713C27.4661 67.8955 27.7011 68.373 27.7011 69.0038C27.7011 69.3636 27.5964 69.6856 27.387 69.9699C27.1777 70.2497 26.8721 70.454 26.4705 70.5828C26.9234 70.6717 27.2866 70.8738 27.5601 71.1892C27.8378 71.5045 27.9767 71.871 27.9767 72.2885C27.9767 72.9237 27.7502 73.4167 27.2973 73.7676C26.8486 74.1141 26.212 74.2873 25.3873 74.2873H22.4261ZM23.1888 70.9693V73.6211H25.4129C25.9898 73.6211 26.4342 73.5056 26.7461 73.2746C27.058 73.0436 27.214 72.7105 27.214 72.2752C27.214 71.8754 27.058 71.5578 26.7461 71.3224C26.4342 71.087 25.9898 70.9693 25.4129 70.9693H23.1888ZM23.1888 70.303H25.1309C26.3359 70.2852 26.9384 69.8588 26.9384 69.0238C26.9384 68.584 26.7717 68.2642 26.4384 68.0643C26.1094 67.86 25.6202 67.7578 24.9707 67.7578H23.1888V70.303Z" fill="black"/>
<path d="M34.008 67.7645H30.502V74.2873H29.7329V67.0782H34.008V67.7645Z" fill="black"/>
<path d="M37.7832 74.4206C37.1935 74.4206 36.6594 74.2696 36.1808 73.9675C35.7065 73.6655 35.3369 73.2457 35.072 72.7083C34.807 72.1664 34.6746 71.5601 34.6746 70.8893V70.6028C34.6746 69.9099 34.8028 69.2858 35.0591 68.7306C35.3198 68.1754 35.6809 67.7401 36.1423 67.4247C36.6038 67.1049 37.1038 66.945 37.6422 66.945C38.4839 66.945 39.1505 67.2448 39.6419 67.8445C40.1376 68.4397 40.3854 69.2547 40.3854 70.2897V70.7361H35.4373V70.8893C35.4373 71.7066 35.6616 72.3885 36.1103 72.9348C36.5632 73.4767 37.1315 73.7477 37.8152 73.7477C38.2254 73.7477 38.5865 73.6699 38.8984 73.5145C39.2146 73.359 39.5009 73.1103 39.7573 72.7682L40.238 73.148C39.6739 73.9964 38.8557 74.4206 37.7832 74.4206ZM37.6422 67.6246C37.0653 67.6246 36.5782 67.8445 36.1808 68.2842C35.7877 68.7239 35.5484 69.3147 35.4629 70.0565H39.6227V69.9699C39.6013 69.2769 39.4112 68.7128 39.0522 68.2775C38.6933 67.8422 38.2233 67.6246 37.6422 67.6246Z" fill="black"/>
<path d="M47.2051 74.2873H46.4359V70.9826H42.6992V74.2873H41.9301V67.0782H42.6992V70.3097H46.4359V67.0782H47.2051V74.2873Z" fill="black"/>
<path d="M53.8196 67.0782H54.5887V74.2873H53.8196V68.3641L50.0765 74.2873H49.3138V67.0782H50.0765V73.0081L53.8196 67.0782Z" fill="black"/>
<path d="M61.7032 67.0782V74.2873H60.9341V71.3824H58.7805L57.0884 74.2873H56.2424L57.9858 71.2824C57.5115 71.1536 57.1418 70.9049 56.8769 70.5362C56.6163 70.1675 56.4859 69.7322 56.4859 69.2303C56.4859 68.5774 56.7103 68.0554 57.1589 67.6646C57.6119 67.2737 58.2229 67.0782 58.992 67.0782H61.7032ZM57.2551 69.2436C57.2551 69.6656 57.3833 70.0121 57.6396 70.283C57.9003 70.554 58.2614 70.6939 58.7228 70.7028H60.9341V67.7578H58.9728C58.4387 67.7578 58.0178 67.8911 57.7102 68.1576C57.4068 68.4241 57.2551 68.7861 57.2551 69.2436Z" fill="black"/>
<path d="M68.1896 64.5864L71.6315 73.148L75.0862 64.5864H76.1373V74.2873H75.349V70.0632L75.4131 65.7324L71.9391 74.2873H71.3302L67.8691 65.7657L67.9332 70.0365V74.2873H67.1449V64.5864H68.1896Z" fill="black"/>
<path d="M80.5214 73.1413L82.5468 67.0782H83.3736L80.4124 75.5133L80.2586 75.8864C79.8783 76.7614 79.2908 77.199 78.496 77.199C78.3123 77.199 78.1157 77.1679 77.9063 77.1057L77.8999 76.4461L78.2973 76.4861C78.6733 76.4861 78.9767 76.3883 79.2075 76.1929C79.4425 76.0019 79.6412 75.671 79.8035 75.2001L80.1432 74.2274L77.5282 67.0782H78.3678L80.5214 73.1413Z" fill="black"/>
<path d="M90.142 70.7561C90.142 71.8799 89.9027 72.7727 89.4241 73.4345C88.9456 74.0919 88.3046 74.4206 87.5013 74.4206C86.5527 74.4206 85.8263 74.0741 85.3221 73.3812V77.0591H84.5593V67.0782H85.2708L85.3093 68.0976C85.8092 67.3292 86.5335 66.945 87.4821 66.945C88.311 66.945 88.9605 67.2715 89.4305 67.9244C89.9048 68.5774 90.142 69.4835 90.142 70.6428V70.7561ZM89.3728 70.6162C89.3728 69.6967 89.1912 68.9705 88.828 68.4374C88.4648 67.9044 87.9585 67.6379 87.309 67.6379C86.839 67.6379 86.4352 67.7556 86.0976 67.991C85.7601 68.2265 85.5015 68.5685 85.3221 69.0171V72.4751C85.5058 72.8882 85.7686 73.2035 86.1104 73.4212C86.4523 73.6388 86.8561 73.7477 87.3218 73.7477C87.967 73.7477 88.4691 73.4811 88.828 72.9481C89.1912 72.4107 89.3728 71.6333 89.3728 70.6162Z" fill="black"/>
<path d="M95.6862 73.208L98.4422 67.0782H99.3908V74.2873H98.6217V68.3708L95.9554 74.2873H95.4106L92.693 68.2376V74.2873H91.9302V67.0782H92.9365L95.6862 73.208Z" fill="black"/>
<path d="M106.005 67.0782H106.775V74.2873H106.005V68.3641L102.262 74.2873H101.5V67.0782H102.262V73.0081L106.005 67.0782Z" fill="black"/>
<path d="M114.165 67.0782V74.2873H113.395V67.7645H110.556L110.434 70.4629C110.383 71.4623 110.287 72.2263 110.146 72.7549C110.005 73.279 109.796 73.6655 109.518 73.9142C109.24 74.163 108.87 74.2873 108.409 74.2873H108.114V73.5811L108.351 73.5678C108.791 73.5589 109.108 73.3368 109.3 72.9015C109.492 72.4662 109.618 71.6889 109.678 70.5695L109.819 67.0782H114.165Z" fill="black"/>
<path d="M115.805 70.5762C115.805 69.8833 115.934 69.2592 116.19 68.7039C116.451 68.1487 116.816 67.7179 117.286 67.4114C117.76 67.1004 118.297 66.945 118.895 66.945C119.818 66.945 120.566 67.2826 121.138 67.9577C121.711 68.6284 121.997 69.519 121.997 70.6295V70.7961C121.997 71.4934 121.867 72.1219 121.606 72.6816C121.35 73.2368 120.986 73.6655 120.516 73.9675C120.046 74.2696 119.51 74.4206 118.908 74.4206C117.989 74.4206 117.241 74.0852 116.664 73.4145C116.092 72.7394 115.805 71.8466 115.805 70.7361V70.5762ZM116.575 70.7961C116.575 71.6578 116.788 72.3662 117.216 72.9215C117.647 73.4723 118.211 73.7477 118.908 73.7477C119.6 73.7477 120.16 73.4723 120.587 72.9215C121.018 72.3662 121.234 71.6356 121.234 70.7294V70.5762C121.234 70.0254 121.136 69.5212 120.939 69.0637C120.743 68.6062 120.467 68.2531 120.113 68.0044C119.758 67.7512 119.352 67.6246 118.895 67.6246C118.211 67.6246 117.653 67.9044 117.222 68.4641C116.79 69.0193 116.575 69.7478 116.575 70.6495V70.7961Z" fill="black"/>
<path d="M123.67 74.2873V67.0782H126.214C127.095 67.0782 127.77 67.2426 128.24 67.5713C128.71 67.8955 128.945 68.373 128.945 69.0038C128.945 69.3636 128.84 69.6856 128.631 69.9699C128.421 70.2497 128.116 70.454 127.714 70.5828C128.167 70.6717 128.53 70.8738 128.804 71.1892C129.082 71.5045 129.22 71.871 129.22 72.2885C129.22 72.9237 128.994 73.4167 128.541 73.7676C128.092 74.1141 127.456 74.2873 126.631 74.2873H123.67ZM124.433 70.9693V73.6211H126.657C127.233 73.6211 127.678 73.5056 127.99 73.2746C128.302 73.0436 128.458 72.7105 128.458 72.2752C128.458 71.8754 128.302 71.5578 127.99 71.3224C127.678 71.087 127.233 70.9693 126.657 70.9693H124.433ZM124.433 70.303H126.375C127.58 70.2852 128.182 69.8588 128.182 69.0238C128.182 68.584 128.015 68.2642 127.682 68.0643C127.353 67.86 126.864 67.7578 126.214 67.7578H124.433V70.303Z" fill="black"/>
<path d="M135.309 74.2873C135.232 74.0608 135.183 73.7254 135.162 73.2813C134.893 73.6455 134.549 73.9276 134.13 74.1274C133.716 74.3229 133.275 74.4206 132.81 74.4206C132.143 74.4206 131.603 74.2274 131.188 73.8409C130.778 73.4545 130.573 72.9659 130.573 72.3751C130.573 71.6733 130.853 71.1181 131.412 70.7094C131.976 70.3008 132.761 70.0965 133.765 70.0965H135.156V69.2769C135.156 68.7617 135.002 68.3575 134.694 68.0643C134.391 67.7667 133.946 67.6179 133.361 67.6179C132.827 67.6179 132.385 67.7601 132.034 68.0443C131.684 68.3286 131.509 68.6706 131.509 69.0704L130.739 69.0637C130.739 68.4907 130.996 67.9955 131.509 67.5779C132.021 67.156 132.652 66.945 133.399 66.945C134.173 66.945 134.782 67.1471 135.226 67.5513C135.675 67.9511 135.905 68.5107 135.918 69.2303V72.6416C135.918 73.339 135.989 73.8609 136.13 74.2074V74.2873H135.309ZM132.899 73.7143C133.412 73.7143 133.869 73.5855 134.271 73.3279C134.677 73.0703 134.972 72.726 135.156 72.2952V70.7094H133.784C133.019 70.7183 132.421 70.8649 131.989 71.1492C131.558 71.429 131.342 71.8155 131.342 72.3085C131.342 72.7127 131.485 73.0481 131.771 73.3146C132.062 73.5811 132.438 73.7143 132.899 73.7143Z" fill="black"/>
<path d="M51.6397 52.8983V61.511H50.1739V60.2379C49.8947 60.678 49.5028 61.0238 48.9981 61.2752C48.5041 61.5162 47.9565 61.6367 47.3551 61.6367C46.6679 61.6367 46.0504 61.5005 45.5028 61.2281C44.9551 60.9452 44.5202 60.5261 44.1981 59.9708C43.8867 59.4154 43.731 58.7396 43.731 57.9433V52.8983H45.1806V57.7547C45.1806 58.6034 45.4008 59.2583 45.841 59.7193C46.2813 60.1698 46.8826 60.3951 47.6451 60.3951C48.4289 60.3951 49.0464 60.1594 49.4974 59.6879C49.9484 59.2164 50.1739 58.5301 50.1739 57.629V52.8983H51.6397Z" fill="black"/>
<path d="M55.5803 54.5014C55.881 53.988 56.3213 53.5688 56.9011 53.244C57.481 52.9192 58.1414 52.7568 58.8824 52.7568C59.677 52.7568 60.3911 52.9402 61.0246 53.3069C61.6582 53.6736 62.1575 54.1923 62.5226 54.8629C62.8877 55.523 63.0703 56.2931 63.0703 57.1732C63.0703 58.0429 62.8877 58.8182 62.5226 59.4993C62.1575 60.1803 61.6528 60.7094 61.0085 61.0866C60.375 61.4638 59.6663 61.6524 58.8824 61.6524C58.1199 61.6524 57.4488 61.49 56.8689 61.1652C56.2998 60.8404 55.8703 60.4265 55.5803 59.9236V61.511H54.1146V49.8807H55.5803V54.5014ZM61.5723 57.1732C61.5723 56.5236 61.4381 55.9578 61.1696 55.4758C60.9012 54.9938 60.5361 54.6271 60.0743 54.3756C59.6233 54.1242 59.124 53.9984 58.5763 53.9984C58.0394 53.9984 57.5401 54.1294 57.0783 54.3914C56.6273 54.6428 56.2622 55.0148 55.983 55.5072C55.7146 55.9892 55.5803 56.5498 55.5803 57.1889C55.5803 57.8385 55.7146 58.4096 55.983 58.902C56.2622 59.384 56.6273 59.756 57.0783 60.0179C57.5401 60.2694 58.0394 60.3951 58.5763 60.3951C59.124 60.3951 59.6233 60.2694 60.0743 60.0179C60.5361 59.756 60.9012 59.384 61.1696 58.902C61.4381 58.4096 61.5723 57.8333 61.5723 57.1732Z" fill="black"/>
<path d="M54.0941 40.8146C54.3477 40.3291 54.707 39.952 55.1719 39.6834C55.6474 39.4149 56.2232 39.2806 56.8994 39.2806V40.7371H56.5191C54.9024 40.7371 54.0941 41.5946 54.0941 43.3094V47.9271H52.6519V39.4355H54.0941V40.8146Z" fill="black"/>
<path d="M58.0255 43.6503C58.0255 42.7826 58.2051 42.0233 58.5643 41.3725C58.9236 40.7113 59.4149 40.2 60.0383 39.8384C60.6723 39.4768 61.3749 39.2961 62.1463 39.2961C62.907 39.2961 63.5674 39.4562 64.1274 39.7764C64.6874 40.0967 65.1048 40.4995 65.3795 40.9851V39.4355H66.8376V47.9271H65.3795V46.3465C65.0942 46.8424 64.6663 47.2556 64.0957 47.5862C63.5357 47.9064 62.8806 48.0666 62.1304 48.0666C61.3591 48.0666 60.6617 47.8806 60.0383 47.5087C59.4149 47.1368 58.9236 46.6151 58.5643 45.9437C58.2051 45.2722 58.0255 44.5077 58.0255 43.6503ZM65.3795 43.6658C65.3795 43.0253 65.2474 42.4675 64.9833 41.9923C64.7191 41.5171 64.3599 41.1555 63.9055 40.9076C63.4617 40.6493 62.9704 40.5202 62.4315 40.5202C61.8927 40.5202 61.4013 40.6442 60.9576 40.8921C60.5138 41.14 60.1598 41.5016 59.8957 41.9768C59.6315 42.452 59.4994 43.0098 59.4994 43.6503C59.4994 44.3011 59.6315 44.8693 59.8957 45.3548C60.1598 45.83 60.5138 46.1968 60.9576 46.455C61.4013 46.7029 61.8927 46.8269 62.4315 46.8269C62.9704 46.8269 63.4617 46.7029 63.9055 46.455C64.3599 46.1968 64.7191 45.83 64.9833 45.3548C65.2474 44.8693 65.3795 44.3063 65.3795 43.6658Z" fill="black"/>
<path d="M70.0198 38.0564C69.7451 38.0564 69.5127 37.9634 69.3225 37.7775C69.1323 37.5915 69.0372 37.3643 69.0372 37.0957C69.0372 36.8271 69.1323 36.5998 69.3225 36.4139C69.5127 36.2279 69.7451 36.1349 70.0198 36.1349C70.284 36.1349 70.5059 36.2279 70.6855 36.4139C70.8757 36.5998 70.9708 36.8271 70.9708 37.0957C70.9708 37.3643 70.8757 37.5915 70.6855 37.7775C70.5059 37.9634 70.284 38.0564 70.0198 38.0564ZM70.7172 39.4355V47.9271H69.2749V39.4355H70.7172Z" fill="black"/>
<path d="M77.407 39.2806C78.4637 39.2806 79.3195 39.5956 79.9746 40.2258C80.6297 40.8456 80.9573 41.7444 80.9573 42.922V47.9271H79.5308V43.1235C79.5308 42.2764 79.3142 41.6307 78.881 41.1865C78.4478 40.732 77.8561 40.5047 77.1059 40.5047C76.3452 40.5047 75.7376 40.7371 75.2833 41.202C74.8395 41.6669 74.6176 42.3435 74.6176 43.2319V47.9271H73.1753V39.4355H74.6176V40.6442C74.9029 40.2103 75.2885 39.8746 75.7746 39.637C76.2712 39.3994 76.8153 39.2806 77.407 39.2806Z" fill="black"/>
<path d="M84.0581 38.0564C83.7834 38.0564 83.551 37.9634 83.3608 37.7775C83.1706 37.5915 83.0755 37.3643 83.0755 37.0957C83.0755 36.8271 83.1706 36.5998 83.3608 36.4139C83.551 36.2279 83.7834 36.1349 84.0581 36.1349C84.3223 36.1349 84.5442 36.2279 84.7238 36.4139C84.914 36.5998 85.0091 36.8271 85.0091 37.0957C85.0091 37.3643 84.914 37.5915 84.7238 37.7775C84.5442 37.9634 84.3223 38.0564 84.0581 38.0564ZM84.7555 39.4355V47.9271H83.3132V39.4355H84.7555Z" fill="black"/>
<path d="M91.4453 39.2806C92.502 39.2806 93.3578 39.5956 94.0129 40.2258C94.668 40.8456 94.9956 41.7444 94.9956 42.922V47.9271H93.5691V43.1235C93.5691 42.2764 93.3525 41.6307 92.9193 41.1865C92.4861 40.732 91.8944 40.5047 91.1442 40.5047C90.3834 40.5047 89.7759 40.7371 89.3216 41.202C88.8778 41.6669 88.6559 42.3435 88.6559 43.2319V47.9271H87.2136V39.4355H88.6559V40.6442C88.9412 40.2103 89.3268 39.8746 89.8129 39.637C90.3095 39.3994 90.8536 39.2806 91.4453 39.2806Z" fill="black"/>
<path d="M100.933 39.2961C101.684 39.2961 102.339 39.4562 102.899 39.7764C103.469 40.0967 103.892 40.4995 104.167 40.9851V39.4355H105.625V48.113C105.625 48.8878 105.456 49.5748 105.118 50.174C104.78 50.7835 104.293 51.2587 103.659 51.5996C103.036 51.9405 102.307 52.1109 101.472 52.1109C100.331 52.1109 99.3802 51.8475 98.6194 51.3206C97.8587 50.7938 97.4096 50.0758 97.2723 49.1667H98.6987C98.8572 49.6833 99.1847 50.0965 99.6813 50.4064C100.178 50.7266 100.775 50.8868 101.472 50.8868C102.265 50.8868 102.909 50.644 103.406 50.1585C103.913 49.6729 104.167 48.9911 104.167 48.113V46.3311C103.881 46.8269 103.459 47.2401 102.899 47.5707C102.339 47.9013 101.684 48.0666 100.933 48.0666C100.162 48.0666 99.4595 47.8806 98.8255 47.5087C98.2021 47.1368 97.7108 46.6151 97.3515 45.9437C96.9923 45.2722 96.8126 44.5077 96.8126 43.6503C96.8126 42.7826 96.9923 42.0233 97.3515 41.3725C97.7108 40.7113 98.2021 40.2 98.8255 39.8384C99.4595 39.4768 100.162 39.2961 100.933 39.2961ZM104.167 43.6658C104.167 43.0253 104.035 42.4675 103.77 41.9923C103.506 41.5171 103.147 41.1555 102.693 40.9076C102.249 40.6493 101.758 40.5202 101.219 40.5202C100.68 40.5202 100.189 40.6442 99.7447 40.8921C99.301 41.14 98.947 41.5016 98.6828 41.9768C98.4187 42.452 98.2866 43.0098 98.2866 43.6503C98.2866 44.3011 98.4187 44.8693 98.6828 45.3548C98.947 45.83 99.301 46.1968 99.7447 46.455C100.189 46.7029 100.68 46.8269 101.219 46.8269C101.758 46.8269 102.249 46.7029 102.693 46.455C103.147 46.1968 103.506 45.83 103.77 45.3548C104.035 44.8693 104.167 44.3063 104.167 43.6658Z" fill="black"/>
<g filter="url(#filter0_d)">
<path d="M39.6643 61.1869H35.592V46.093H18.9932V61.1869H14.9209V28.8302H18.9932V42.5076H35.592V28.8302H39.6643V61.1869Z" fill="#F4902F"/>
<path d="M56.9304 16.6541V20.8694H48.5451V48.1557H43.3779V20.8694H34.9473V16.6541H56.9304Z" fill="#F4902F"/>
</g>
<defs>
<filter id="filter0_d" x="14.9209" y="16.6541" width="49.0095" height="51.5328" filterUnits="userSpaceOnUse" color-interpolation-filters="sRGB">
<feFlood flood-opacity="0" result="BackgroundImageFix"/>
<feColorMatrix in="SourceAlpha" type="matrix" values="0 0 0 0 0 0 0 0 0 0 0 0 0 0 0 0 0 0 127 0"/>
<feOffset dx="4" dy="4"/>
<feGaussianBlur stdDeviation="1.5"/>
<feColorMatrix type="matrix" values="0 0 0 0 0 0 0 0 0 0 0 0 0 0 0 0 0 0 0.25 0"/>
<feBlend mode="normal" in2="BackgroundImageFix" result="effect1_dropShadow"/>
<feBlend mode="normal" in="SourceGraphic" in2="effect1_dropShadow" result="shape"/>
</filter>
</defs>
</svg>
