<svg width="50" height="79" viewBox="0 0 50 79" fill="none" xmlns="http://www.w3.org/2000/svg">
<g clip-path="url(#clip0)">
<path d="M47.079 29.8659C47.079 33.3341 47.079 36.8667 47.079 40.335C47.079 40.7203 47.2074 41.1699 47.3359 41.5553C51.8318 52.4098 49.1343 65.0626 40.4635 72.8341C35.5822 77.2659 29.7375 79.3854 23.1863 78.8715C15.2221 78.2935 9.05622 74.3756 4.62451 67.8244C0.770851 62.1081 -0.577929 55.7496 0.192802 48.8772C0.642396 45.0878 1.92695 41.4268 3.91801 38.0228C4.11069 37.6374 4.23914 37.1878 4.23914 36.7382C4.23914 31.6 4.17492 26.526 4.23914 21.3878C4.3676 12.8455 8.28548 6.48699 15.7359 2.50488C28.5172 -4.30325 44.1887 3.40407 46.8221 17.6626C46.9505 18.4976 47.0147 19.3967 47.0147 20.2959C47.079 23.5073 47.079 26.6545 47.079 29.8659ZM42.1977 33.5268C42.1977 33.1415 42.1977 32.8846 42.1977 32.6276C42.1977 29.8016 42.1977 27.0398 42.1977 24.2138C42.1977 22.4797 42.3904 20.7455 42.0692 19.0756C40.8489 12.2675 36.931 7.57886 30.3156 5.65204C23.7643 3.66098 17.9839 5.45935 13.2952 10.4691C10.7261 13.2309 9.31313 16.5065 9.18467 20.2317C9.05622 23.6358 9.18467 27.0398 9.18467 30.3797C9.18467 30.765 9.18467 31.1504 9.18467 31.6642C17.9839 23.8927 32.4351 23.3146 42.1977 33.5268ZM44.5741 51.7033C44.3814 50.4829 44.253 48.4276 43.6749 46.565C41.7481 39.6285 37.5733 34.5545 30.7009 32.2423C24.0855 29.9943 17.9196 31.2146 12.5887 35.7748C2.95459 43.9317 2.37654 58.961 11.24 68.0171C17.7269 74.6325 27.618 75.7244 35.2611 70.4577C41.4912 66.0902 44.253 59.9244 44.5741 51.7033Z" fill="black"/>
<path d="M40.335 52.7951C40.1423 58.3187 37.9586 63.2642 33.0131 66.604C26.6545 70.9073 18.6261 69.7512 13.4236 63.9707C6.48706 56.1992 8.15698 43.5463 16.8277 37.9585C23.0578 33.9764 31.3432 35.3252 36.2245 41.1057C38.9863 44.3813 40.2708 48.1707 40.335 52.7951ZM27.361 58.4471C27.361 58.126 27.361 57.8691 27.361 57.5479C27.361 55.0431 27.361 52.6024 27.361 50.0975C27.361 49.8406 27.4895 49.4553 27.6822 49.2626C29.7375 47.4 29.8017 44.3813 27.8749 42.5187C26.0123 40.7203 23.0578 40.8487 21.2594 42.8398C19.5253 44.7666 19.8464 47.7211 21.9017 49.4553C22.1586 49.6479 22.3513 50.0975 22.3513 50.4829C22.4155 52.8593 22.3513 55.2357 22.3513 57.6122C22.3513 57.8691 22.3513 58.126 22.3513 58.4471C24.0854 58.4471 25.6911 58.4471 27.361 58.4471Z" fill="black"/>
</g>
<defs>
<clipPath id="clip0">
<rect width="49.4553" height="79" fill="white"/>
</clipPath>
</defs>
</svg>
